<svg width="11" height="19" viewBox="0 0 11 19" fill="none" xmlns="http://www.w3.org/2000/svg">
<path d="M10.6427 1.05125C10.6534 1.49757 10.4877 1.78028 10.2358 2.03071C9.06909 3.19242 7.90594 4.35844 6.74136 5.52302C5.72244 6.54194 4.70352 7.56015 3.6846 8.57979C3.08759 9.17679 3.08831 9.81254 3.6846 10.4095C5.85518 12.5801 8.02505 14.7514 10.1971 16.9199C10.4317 17.1538 10.6176 17.4042 10.6412 17.7494C10.6742 18.2351 10.4389 18.6649 10.017 18.8752C9.58357 19.0919 9.08344 19.028 8.72395 18.6815C8.20875 18.1842 7.7079 17.6726 7.20131 17.1667C4.94892 14.9136 2.69581 12.6605 0.443424 10.4081C-0.148555 9.81613 -0.14999 9.17535 0.443424 8.58194C3.17011 5.85381 5.8968 3.12569 8.62636 0.400434C9.29799 -0.270475 10.3169 -0.0659731 10.591 0.790782C10.6269 0.899132 10.6362 1.01681 10.6427 1.05125Z" fill="#F8F8F8"/>
</svg>
