<svg width="15" height="19" viewBox="0 0 15 19" fill="none" xmlns="http://www.w3.org/2000/svg">
<path d="M2.73866 18.9058C2.40129 18.7996 2.04501 18.7313 1.72933 18.58C0.540485 18.0105 -0.121321 16.7478 0.0175939 15.438C0.109434 14.5704 0.160662 13.6981 0.230812 12.8277C0.299577 11.9698 0.369726 11.1118 0.43803 10.2539C0.504949 9.41438 0.567714 8.57443 0.63694 7.73494C0.717705 6.75516 0.779547 5.7726 0.896771 4.79697C0.970612 4.18178 1.53042 3.74334 2.15254 3.73411C2.64451 3.72673 3.13694 3.73227 3.62937 3.7318C3.69537 3.7318 3.76183 3.7318 3.84028 3.7318C3.85274 2.54342 4.29579 1.56455 5.20404 0.818752C5.94846 0.208175 6.81795 -0.0595012 7.77835 0.0111098C9.57778 0.143563 11.1598 1.63978 11.1626 3.73227C11.2208 3.73227 11.2789 3.73227 11.3371 3.73227C11.811 3.73227 12.2845 3.73134 12.7585 3.73273C13.5458 3.73457 14.0877 4.24685 14.1495 5.0328C14.2533 6.35041 14.3655 7.66756 14.4698 8.98517C14.5745 10.3028 14.6724 11.6209 14.7767 12.9385C14.8441 13.7904 14.9161 14.6419 14.9876 15.4934C15.1357 17.2633 13.9114 18.6612 12.3491 18.8726C12.3201 18.8767 12.2928 18.8943 12.2642 18.9058C9.08904 18.9058 5.91385 18.9058 2.73866 18.9058ZM3.84813 4.83851C3.29016 4.83851 2.76127 4.83574 2.23238 4.83989C2.04178 4.84127 1.97624 4.92435 1.96009 5.13479C1.88486 6.1155 1.80871 7.09621 1.73026 8.07692C1.63749 9.23531 1.54058 10.3928 1.44735 11.5512C1.34905 12.7705 1.24613 13.9898 1.16122 15.21C1.13676 15.5626 1.1086 15.9309 1.18014 16.2715C1.37628 17.2079 2.17377 17.7977 3.1734 17.7982C5.88708 17.7996 8.6003 17.7986 11.314 17.7986C11.5295 17.7986 11.745 17.8037 11.9601 17.7959C13.154 17.7502 13.9972 16.7478 13.873 15.5589C13.7849 14.7153 13.7364 13.868 13.67 13.022C13.604 12.1825 13.538 11.3426 13.4715 10.5031C13.4028 9.63913 13.3331 8.77519 13.2643 7.91078C13.1979 7.07129 13.1351 6.23134 13.0649 5.39186C13.0183 4.8362 13.0853 4.83158 12.4391 4.83712C12.0169 4.84081 11.5941 4.83804 11.1566 4.83804C11.1566 4.92527 11.1566 4.99126 11.1566 5.05772C11.1561 5.44539 11.1608 5.83306 11.1543 6.22073C11.1497 6.49394 10.9438 6.71685 10.6812 6.75377C10.4094 6.79162 10.1491 6.6264 10.0734 6.35641C10.0508 6.27565 10.0513 6.18658 10.0508 6.1012C10.0485 5.68491 10.0499 5.26863 10.0499 4.85235C8.34 4.85235 6.65226 4.85235 4.95529 4.85235C4.95529 5.29032 4.95621 5.71445 4.95437 6.13812C4.95391 6.21104 4.95206 6.28719 4.93221 6.35641C4.85514 6.62593 4.59624 6.79162 4.32394 6.75377C4.06088 6.71731 3.85459 6.4944 3.8509 6.22119C3.84351 5.76706 3.84813 5.3134 3.84813 4.83851ZM4.96452 3.71888C6.66518 3.71888 8.35247 3.71888 10.0393 3.71888C10.1039 2.32143 8.90582 1.1012 7.49175 1.11043C6.07676 1.11966 4.88976 2.33804 4.96452 3.71888Z" fill="#969696"/>
<path d="M6.74082 11.8604C7.548 11.0527 8.3441 10.2575 9.13836 9.4605C9.26805 9.33036 9.40558 9.22837 9.60172 9.23113C9.81771 9.23436 9.98016 9.32528 10.0858 9.51173C10.1961 9.70557 10.186 9.90079 10.0655 10.0863C10.0226 10.1523 9.96493 10.2105 9.90862 10.2668C9.01376 11.163 8.11796 12.0588 7.22171 12.9541C6.88942 13.286 6.59498 13.2878 6.26685 12.9601C5.84918 12.5429 5.42967 12.1276 5.01616 11.7062C4.82924 11.5161 4.79417 11.2802 4.90032 11.0629C5.00139 10.8561 5.21691 10.7126 5.4389 10.7573C5.58012 10.786 5.72919 10.863 5.83534 10.9613C6.14316 11.2442 6.43022 11.5484 6.74082 11.8604Z" fill="#969696"/>
</svg>
