<svg width="25" height="24" viewBox="0 0 25 24" fill="none" xmlns="http://www.w3.org/2000/svg">
<path d="M0 1.04507C0.174789 0.605728 0.495776 0.454115 0.945419 0.466244C1.75699 0.487807 2.56985 0.469613 3.38142 0.472982C4.37167 0.477025 4.9948 0.977013 5.25341 1.9716C5.50877 2.95405 5.76738 3.93516 6.013 4.92031C6.05783 5.09888 6.12541 5.15953 6.30734 5.1602C9.88044 5.16963 13.4542 5.18648 17.0273 5.20265C19.1553 5.21209 21.2827 5.22152 23.41 5.235C24.4503 5.24173 25.1287 6.0901 24.8999 7.14061C24.3223 9.79823 23.7303 12.4531 23.128 15.1047C22.9292 15.98 22.2307 16.5258 21.3515 16.5494C21.0429 16.5575 20.7342 16.5514 20.4256 16.5514C16.1053 16.5487 11.7843 16.546 7.46394 16.544C7.35023 16.544 7.23587 16.5433 7.12346 16.5562C6.6998 16.6033 6.40221 16.9544 6.40221 17.3978C6.40221 17.8405 6.7037 18.1875 7.12995 18.2313C7.24302 18.2428 7.35738 18.2407 7.47044 18.2407C12.2294 18.2414 16.989 18.2407 21.7479 18.2414C22.3268 18.2414 22.6712 18.5851 22.6134 19.1039C22.5802 19.3997 22.4035 19.5857 22.1546 19.7198C22.6361 21.0911 22.4009 22.2656 21.2151 23.122C20.3528 23.7453 19.18 23.6867 18.3346 23.0452C17.3684 22.3121 17.1007 21.2926 17.486 19.7778C15.9695 19.7778 14.4581 19.7778 12.9363 19.7778C13.3899 21.1241 13.1449 22.2871 11.9838 23.1086C11.0819 23.7467 10.091 23.7406 9.19168 23.1052C8.03769 22.2905 7.79727 21.1322 8.24886 19.7569C7.89864 19.7569 7.5692 19.7616 7.24042 19.7562C6.05393 19.7367 5.1371 18.9213 4.95517 17.7273C4.75893 16.4369 5.67511 15.1916 6.92852 15.0441C6.98376 15.0373 7.03964 15.0292 7.11306 15.0191C7.09292 14.9207 7.07862 14.8318 7.05588 14.7449C5.98441 10.621 4.91293 6.4971 3.84081 2.37321C3.75374 2.03966 3.69786 1.99316 3.36907 1.99316C2.55685 1.99249 1.74464 1.98171 0.932424 1.9972C0.48603 2.00596 0.163743 1.84694 0 1.39884C0 1.28091 0 1.16299 0 1.04507ZM6.47758 6.68307C6.76868 7.80636 7.05003 8.88383 7.32424 9.96332C7.36192 10.1129 7.44249 10.1318 7.5692 10.1311C8.38012 10.1271 9.19103 10.1298 10.0019 10.1277C10.0624 10.1277 10.1235 10.1129 10.1988 10.1035C10.1891 9.98488 10.1845 9.88448 10.1715 9.7861C10.0481 8.82858 9.91748 7.87105 9.80312 6.91218C9.78233 6.73766 9.7232 6.68981 9.564 6.68981C8.81806 6.69251 8.07212 6.68577 7.32554 6.6824C7.05328 6.6824 6.78038 6.68307 6.47758 6.68307ZM15.9571 6.72957C15.9571 7.86162 15.9571 8.98221 15.9571 10.1028C15.9948 10.1136 16.0175 10.1257 16.0403 10.1257C16.8837 10.1271 17.7271 10.125 18.5705 10.1311C18.7147 10.1325 18.744 10.0583 18.7596 9.93367C18.8532 9.17493 18.9519 8.41753 19.0474 7.65947C19.0858 7.35624 19.1189 7.05234 19.1559 6.7289C18.0754 6.72957 17.0305 6.72957 15.9571 6.72957ZM14.4594 10.117C14.4594 8.96536 14.4594 7.84342 14.4594 6.71811C13.3821 6.71811 12.3236 6.71811 11.2502 6.71811C11.3983 7.86431 11.5445 8.99232 11.6894 10.117C12.6355 10.117 13.5413 10.117 14.4594 10.117ZM23.4932 6.74035C22.5595 6.74035 21.6595 6.73766 20.7596 6.74844C20.7109 6.74911 20.629 6.85692 20.6199 6.92363C20.5322 7.53076 20.4561 8.13924 20.3795 8.74839C20.3229 9.19716 20.2697 9.64662 20.2125 10.1136C21.0689 10.1136 21.8999 10.1136 22.7414 10.1136C22.9903 8.99838 23.2359 7.89463 23.4932 6.74035ZM10.8291 15.0238C10.8213 14.9133 10.8187 14.8224 10.807 14.7327C10.6836 13.7752 10.5523 12.819 10.4386 11.8602C10.4178 11.6836 10.3567 11.6412 10.1975 11.6425C9.45159 11.6499 8.70565 11.6452 7.96036 11.6466C7.90643 11.6466 7.85315 11.66 7.77128 11.6708C8.04483 12.7153 8.30799 13.7442 8.59324 14.7664C8.62313 14.8736 8.78752 15.009 8.89344 15.0124C9.53086 15.0353 10.1689 15.0238 10.8291 15.0238ZM15.9552 15.034C16.6452 15.034 17.3164 15.0373 17.9877 15.0272C18.0351 15.0265 18.1144 14.9329 18.1228 14.8749C18.2586 13.8682 18.386 12.8595 18.5133 11.8514C18.5211 11.7894 18.5146 11.7254 18.5146 11.6594C17.6504 11.6594 16.8103 11.6594 15.9558 11.6594C15.9552 12.7793 15.9552 13.8864 15.9552 15.034ZM11.8869 11.658C12.0253 12.7476 12.1605 13.8055 12.2917 14.8635C12.3093 15.003 12.373 15.0387 12.501 15.0373C13.0526 15.0313 13.6043 15.0346 14.1559 15.0346C14.258 15.0346 14.3606 15.0346 14.4581 15.0346C14.4581 13.8837 14.4581 12.7705 14.4581 11.658C13.5965 11.658 12.7557 11.658 11.8869 11.658ZM20.0123 11.6587C19.8694 12.7806 19.7277 13.8931 19.5835 15.0299C20.2008 15.0299 20.7908 15.0387 21.3808 15.0252C21.5978 15.0205 21.6907 14.8486 21.7362 14.6398C21.8967 13.8938 22.0643 13.1499 22.2294 12.4053C22.2833 12.1627 22.3359 11.9208 22.3938 11.6587C21.5848 11.6587 20.8096 11.6587 20.0123 11.6587ZM10.5835 22.0297C11.1936 22.0324 11.6894 21.5264 11.6901 20.8997C11.6907 20.2778 11.1858 19.7555 10.5867 19.7582C9.9922 19.7609 9.50357 20.2663 9.49837 20.8835C9.49318 21.5217 9.97206 22.027 10.5835 22.0297ZM19.8181 22.0297C20.4308 22.0372 20.922 21.5419 20.9285 20.9085C20.9357 20.2831 20.4412 19.7616 19.8382 19.7582C19.2469 19.7549 18.7544 20.2555 18.7407 20.8748C18.7277 21.5062 19.2086 22.0223 19.8181 22.0297Z" fill="white"/>
</svg>
