<svg width="20" height="20" viewBox="0 0 20 20" fill="none" xmlns="http://www.w3.org/2000/svg">
<path d="M19.9988 10.2138C19.7442 10.5228 19.4905 10.8329 19.2348 11.1408C18.9812 11.446 18.7819 11.4617 18.4756 11.2065C15.7218 8.90992 12.9679 6.61388 10.2141 4.31785C10.1544 4.26843 10.0935 4.2201 10.0175 4.15874C9.70851 4.4156 9.40006 4.67138 9.09215 4.92825C6.57781 7.02498 4.06347 9.12171 1.54913 11.2179C1.2624 11.4568 1.05495 11.4395 0.816005 11.156C0.61073 10.9127 0.405999 10.6694 0.202897 10.424C-0.0344177 10.1372 -0.0154108 9.9352 0.27458 9.69409C2.47503 7.86019 4.67658 6.02739 6.87757 4.19404C7.59603 3.59559 8.31178 2.9928 9.03513 2.39979C9.54125 1.98435 10.1055 1.93222 10.6947 2.19723C10.8511 2.26782 10.9896 2.38621 11.1237 2.49754C12.023 3.24478 12.9185 3.99636 13.8156 4.74632C13.8585 4.78216 13.9058 4.81366 13.9737 4.86416C13.978 4.77565 13.984 4.71374 13.984 4.65237C13.9845 3.96378 13.9834 3.27519 13.9851 2.5866C13.9862 2.2032 14.1165 2.07287 14.4999 2.07232C15.208 2.07069 15.9162 2.07124 16.6243 2.07232C17.0197 2.07287 17.1527 2.20537 17.1527 2.598C17.1532 4.17666 17.1549 5.75532 17.15 7.33397C17.1494 7.47082 17.1902 7.55988 17.295 7.64623C18.1074 8.31473 18.9171 8.98703 19.723 9.66368C19.8289 9.75274 19.9082 9.87384 19.9999 9.98028C19.9988 10.0579 19.9988 10.1361 19.9988 10.2138Z" fill="#DB2426"/>
<path d="M10.0219 5.24744C11.1314 6.16194 12.224 7.06178 13.3167 7.96216C14.5445 8.97442 15.7707 9.9883 17.0018 10.9967C17.1148 11.0891 17.155 11.1836 17.155 11.3264C17.1506 13.2233 17.1528 15.1202 17.1517 17.017C17.1517 17.5987 16.8291 17.9239 16.2486 17.9245C14.7677 17.9261 13.2862 17.925 11.8053 17.9245C11.7483 17.9245 11.6913 17.9191 11.6125 17.9153C11.6125 16.3371 11.6125 14.7688 11.6125 13.1858C10.5487 13.1858 9.50658 13.1858 8.43677 13.1858C8.43677 14.7558 8.43677 16.3285 8.43677 17.9153C8.34608 17.9191 8.28308 17.9245 8.21955 17.9245C6.74516 17.925 5.27022 17.9256 3.79583 17.9245C3.2039 17.9239 2.88621 17.6014 2.88621 17.0035C2.88567 15.1131 2.88784 13.2227 2.88295 11.3324C2.88241 11.1814 2.92911 11.0847 3.04641 10.9881C5.30932 9.12864 7.56843 7.2638 9.82862 5.40058C9.88781 5.35225 9.94917 5.305 10.0219 5.24744Z" fill="#DB2426"/>
</svg>
