<svg width="20" height="20" viewBox="0 0 20 20" fill="none" xmlns="http://www.w3.org/2000/svg">
<path d="M9.9875 15.0797C8.18125 15.0797 6.375 15.0573 4.56927 15.088C3.44844 15.1073 3.18333 14.1552 3.41979 13.4661C3.53542 13.1286 3.74219 12.862 4.02448 12.6495C4.18542 12.5286 4.34739 12.4094 4.50885 12.289C5.01771 11.9109 5.28542 11.3974 5.29687 10.7719C5.31771 9.64842 5.31927 8.52394 5.31667 7.39998C5.31458 6.45831 5.59792 5.62446 6.21875 4.91352C6.79323 4.25623 7.51823 3.82602 8.33594 3.54321C8.81771 3.37706 8.84114 3.34998 8.85 2.83852C8.85885 2.31092 9.07031 1.988 9.51406 1.8255C9.99948 1.6479 10.5854 1.76561 10.8865 2.10363C11.0396 2.2755 11.1094 2.47706 11.1198 2.70779C11.1484 3.3604 11.1531 3.35623 11.7568 3.58331C12.7094 3.94113 13.5245 4.48435 14.0885 5.35415C14.4615 5.92967 14.6521 6.56404 14.6557 7.24946C14.6615 8.28279 14.6547 9.3156 14.6604 10.3489C14.6615 10.5823 14.6766 10.8172 14.7104 11.0474C14.7865 11.5682 15.0526 11.9791 15.474 12.2916C15.6458 12.4192 15.8203 12.5442 15.9896 12.6755C16.3615 12.9646 16.5792 13.3432 16.6344 13.8125C16.7193 14.5349 16.2474 15.0771 15.5224 15.0786C14.1453 15.0817 12.7677 15.0797 11.3906 15.0797C10.9234 15.0797 10.4557 15.0797 9.9875 15.0797Z" fill="#979797"/>
<path d="M12.2865 16.138C12.2802 16.9167 11.9193 17.4844 11.2932 17.8901C10.4854 18.4141 9.64531 18.4464 8.80885 17.9651C8.11719 17.5672 7.7099 16.9771 7.6875 16.1375C9.22344 16.138 10.7453 16.138 12.2865 16.138Z" fill="#979797"/>
</svg>
