<svg width="20" height="20" viewBox="0 0 20 20" fill="none" xmlns="http://www.w3.org/2000/svg">
<path d="M4.75586 20C4.5293 19.9526 4.29883 19.9184 4.07666 19.8555C2.65381 19.4541 1.75439 18.355 1.69141 16.8589C1.62646 15.313 1.7959 13.79 2.38232 12.3428C2.76074 11.4082 3.31055 10.6001 4.23193 10.1064C4.80029 9.80224 5.41016 9.65673 6.04785 9.66991C6.24902 9.67431 6.46094 9.77587 6.64453 9.87597C6.94043 10.0371 7.21484 10.2373 7.50195 10.415C9.17188 11.4477 10.8423 11.4468 12.5107 10.4111C12.7427 10.2671 12.979 10.1284 13.1968 9.96532C13.5962 9.66552 14.0356 9.62792 14.5098 9.69774C15.8047 9.88817 16.7192 10.5991 17.3359 11.7324C17.8862 12.7446 18.1343 13.8433 18.2446 14.9761C18.3013 15.5576 18.3281 16.145 18.3208 16.729C18.2998 18.4736 17.1045 19.772 15.3721 19.9634C15.3291 19.9683 15.2876 19.9873 15.2451 20C11.749 20 8.25244 20 4.75586 20Z" fill="#979797"/>
<path d="M10.332 0C10.5913 0.0522461 10.8525 0.0966797 11.1104 0.157227C12.8789 0.572266 14.3896 2.2627 14.6279 4.07129C14.7847 5.26172 14.6118 6.38672 13.9409 7.39356C13.0493 8.73096 11.8159 9.50928 10.1846 9.61963C8.04248 9.76465 6.28028 8.50244 5.48047 6.78906C4.72901 5.17969 5.03321 3.03613 6.21094 1.70215C6.9336 0.883301 7.80469 0.319336 8.88281 0.0996094C9.06641 0.0620117 9.25147 0.0332031 9.43555 0C9.73438 0 10.0332 0 10.332 0Z" fill="#979797"/>
</svg>
