<svg width="18" height="18" viewBox="0 0 18 18" fill="none" xmlns="http://www.w3.org/2000/svg">
<path d="M0 6.64402C0.0448067 6.35002 0.0773135 6.05295 0.136617 5.76204C0.491995 4.01785 1.37144 2.59358 2.77274 1.49802C3.82043 0.678444 5.01088 0.191091 6.3318 0.0451923C7.88686 -0.126634 9.34659 0.185378 10.6991 0.974635C12.0521 1.76433 13.0392 2.88713 13.6639 4.31975C14.1857 5.51594 14.3491 6.76794 14.1756 8.06389C14.0074 9.32248 13.5312 10.4506 12.7629 11.4582C12.7313 11.4995 12.7027 11.5435 12.6636 11.5997C12.7124 11.6511 12.7585 11.7021 12.8068 11.7505C14.4379 13.3826 16.0694 15.0143 17.7004 16.6464C18.0224 16.9685 18.0988 17.3469 17.8616 17.6528C17.7474 17.8 17.5532 17.8857 17.3955 17.9995C17.2901 17.9995 17.1847 17.9995 17.0793 17.9995C16.8895 17.8589 16.6795 17.7389 16.5139 17.5741C14.9224 15.9934 13.3388 14.4048 11.7525 12.8188C11.7007 12.7669 11.6462 12.7168 11.5926 12.6654C11.5043 12.7304 11.4349 12.7841 11.3633 12.8346C9.29827 14.3024 7.05266 14.675 4.67439 13.7948C2.27943 12.9089 0.795539 11.1572 0.178348 8.68C0.0900527 8.32493 0.0579852 7.95579 0 7.59324C0 7.27683 0 6.96042 0 6.64402ZM7.12163 12.7507C10.2085 12.7511 12.7523 10.2181 12.7427 7.12566C12.733 3.98533 10.2063 1.50901 7.12339 1.50418C4.02997 1.4989 1.50322 4.02752 1.50322 7.12434C1.50322 10.2185 4.03129 12.7502 7.12163 12.7507Z" fill="#FFCC31"/>
</svg>
